<svg xmlns="http://www.w3.org/2000/svg" viewBox="0 0 100 100" width="100%" height="100%">
  <defs>
    <filter id="shadow" x="-10%" y="-10%" width="130%" height="130%">
      <feDropShadow dx="2" dy="4" stdDeviation="2" flood-color="#000" flood-opacity="0.25"/>
    </filter>
  </defs>
  <g filter="url(#shadow)">
    <!-- Mushroom stem -->
    <path d="M42 50 C40 70 38 85 36 92 C46 94 54 94 64 92 C62 85 60 70 58 50 Z" fill="#F4EAD4" stroke="#D1C2A5" stroke-width="2"/>
    <!-- Mushroom cap -->
    <path d="M15 55 C15 25 85 25 85 55 C75 58 60 52 50 54 C40 52 25 58 15 55 Z" fill="#C2410C" stroke="#9A3412" stroke-width="2"/>
    <!-- White paper dots -->
    <circle cx="35" cy="38" r="4" fill="#FEF3C7"/>
    <circle cx="50" cy="32" r="5" fill="#FEF3C7"/>
    <circle cx="65" cy="40" r="3.5" fill="#FEF3C7"/>
    <circle cx="26" cy="48" r="2.5" fill="#FEF3C7"/>
    <circle cx="74" cy="48" r="3" fill="#FEF3C7"/>
  </g>
</svg>
